<?xml version="1.0" encoding="UTF-8"?>
<svg width="600" height="600" viewbox="0,0,600,600" xmlns="http://www.w3.org/2000/svg">
 <g>
  <title>Layer 1</title>
  <path id="svg_1" d="m797.06247,302.14066zm-733.97046,-302.14066c-35.05112,0 -63.09202,28.0409 -63.09202,63.09202l0,473.19012c0,35.05112 28.0409,63.09202 63.09202,63.09202l473.19012,0c34.3501,0 63.09202,-28.0409 63.09202,-63.09202l0,-473.19012c0,-35.05112 -28.0409,-63.09202 -63.09202,-63.09202m-237.64659,365.23267" fill="#E5422B"/>
  <g>
   <title fill="#ffffff">OpenAI</title>
   <g>
    <path fill="#ffffff" d="m463.30139,265.39451c8.62214,-25.9654 5.63761,-54.38693 -8.19021,-77.99487c-20.79151,-36.1916 -62.58036,-54.80829 -103.39206,-46.06056c-22.99905,-25.58276 -57.89534,-36.95889 -91.55307,-29.84613c-33.65773,7.11275 -60.96782,31.63469 -71.65011,64.33519c-26.80808,5.49763 -49.94601,22.28289 -63.49293,46.06056c-21.01814,36.13296 -16.24756,81.71165 11.79691,112.70937c-8.65473,25.95365 -5.69719,54.37886 8.11506,77.99489c20.81768,36.20373 62.63369,54.81901 103.4672,46.06056c18.16267,20.45217 44.2557,32.08862 71.60803,31.93584c41.83204,0.03709 78.89191,-26.96801 91.67029,-66.8006c26.80404,-5.50678 49.93855,-22.28957 63.49293,-46.06056c20.76437,-36.06923 15.97336,-81.4018 -11.87205,-112.33368l0,0zm-143.29117,200.24708c-16.69718,0.02639 -32.87076,-5.8259 -45.68487,-16.5308l2.25419,-1.27737l75.89096,-43.80638c3.84234,-2.25371 6.21242,-6.36565 6.23659,-10.82009l0,-106.99877l32.0846,18.55948c0.32095,0.1636 0.54436,0.47078 0.60113,0.82652l0,88.66471c-0.08268,39.38923 -31.99337,71.29993 -71.3826,71.38269zm-153.43503,-65.52181c-8.37345,-14.45876 -11.38001,-31.40722 -8.49077,-47.86391l2.25419,1.3525l75.96612,43.80638c3.82746,2.24617 8.57055,2.24617 12.39803,0l92.79738,-53.49938l0,37.04382c-0.01739,0.38872 -0.21102,0.74831 -0.52597,0.97682l-76.86778,44.33234c-34.15766,19.67792 -77.79863,7.97757 -97.53119,-26.14857zm-19.98712,-165.30707c8.43161,-14.55211 21.74025,-25.65153 37.56979,-31.33321l0,90.16749c-0.05816,4.43698 2.30269,8.55407 6.16144,10.74496l92.34654,53.27396l-32.0846,18.55948c-0.35243,0.18702 -0.77466,0.18702 -1.12709,0l-76.71752,-44.25721c-34.09066,-19.75973 -45.78216,-63.36771 -26.14857,-97.53117l0,0.37571zm263.58964,61.23876l-92.64711,-53.79995l32.00947,-18.48434c0.35243,-0.18702 0.77466,-0.18702 1.12709,0l76.71752,44.33236c23.94408,13.8169 37.75761,40.21674 35.45786,67.76554c-2.29975,27.5488 -20.29927,51.29291 -46.20282,60.94856l0,-90.16749c-0.13474,-4.42407 -2.59023,-8.44994 -6.462,-10.59468zm31.93433,-48.01419l-2.25419,-1.35251l-75.81584,-44.18207c-3.85072,-2.25958 -8.62244,-2.25958 -12.47317,0l-92.72224,53.49938l0,-37.04382c-0.04019,-0.38364 0.13282,-0.75849 0.45083,-0.97682l76.7175,-44.25721c24.00275,-13.82772 53.83477,-12.53735 76.55387,3.31131c22.7191,15.84867 34.2317,43.39998 29.54323,70.70118l0,0.30057zm-200.77297,65.67199l-32.0846,-18.48434c-0.32426,-0.19646 -0.54448,-0.5268 -0.60112,-0.90168l0,-88.43927c0.03659,-27.69538 16.0733,-52.87555 41.15518,-64.6201c25.08187,-11.74457 54.69146,-7.93824 75.98742,9.7682l-2.25419,1.27737l-75.89096,43.80637c-3.84234,2.25371 -6.21242,6.36567 -6.23659,10.82011l-0.07514,106.77334zm17.43239,-37.56979l41.32676,-23.81925l41.40191,23.81925l0,47.6385l-41.25162,23.81925l-41.40191,-23.81925l-0.07514,-47.6385z"/>
   </g>
  </g>
 </g>
</svg>